<svg width="15" height="15" viewBox="0 0 15 15" fill="none" xmlns="http://www.w3.org/2000/svg">
<g clip-path="url(#clip0_222_2720)">
<path d="M5.89512 2.41334C5.89575 2.36061 5.88564 2.30831 5.8654 2.25962C5.84515 2.21093 5.81518 2.16687 5.77735 2.13014L5.45381 1.80487C5.37789 1.73047 5.27605 1.68847 5.16975 1.68775C5.11705 1.6876 5.06485 1.6981 5.0163 1.71859C4.96775 1.73909 4.92384 1.76917 4.88719 1.80703L4.4502 2.24316L5.81187 2.65514C5.86568 2.58602 5.89497 2.50095 5.89512 2.41334Z" fill="#27B7FF"/>
<path d="M7.43888 3.13951C7.51278 3.06484 7.55444 2.96417 7.55491 2.85911C7.55532 2.80646 7.54519 2.75426 7.52511 2.70558C7.50503 2.65691 7.47541 2.61274 7.43801 2.57568L7.11447 2.25214C7.07738 2.21465 7.03325 2.18486 6.98461 2.16447C6.93597 2.14407 6.8838 2.13348 6.83106 2.1333C6.7785 2.1331 6.72643 2.1434 6.67791 2.16358C6.62939 2.18377 6.5854 2.21344 6.5485 2.25085L6.06836 2.73272L6.82113 2.94668L7.43888 3.13951Z" fill="#27B7FF"/>
<path d="M11.3208 5.77956C11.5054 5.60398 11.6801 5.43575 11.8488 5.27613C12.8166 4.35771 13.5163 3.69294 14.0152 3.02861C14.63 2.20465 14.999 1.34986 15.0001 0.736424C15.0073 0.572896 14.967 0.410782 14.8841 0.269662C14.8647 0.238222 14.8416 0.209245 14.8153 0.183379C14.7914 0.159299 14.7646 0.138231 14.7357 0.120622C14.5932 0.0338199 14.4278 -0.00790472 14.2611 0.00091337C13.6507 0.00263892 12.7966 0.36996 11.9709 0.987492C11.305 1.48553 10.6381 2.18826 9.71625 3.16147C9.55857 3.32561 9.39443 3.49838 9.22015 3.68043L7.79463 3.25271L7.79226 3.25444L6.06821 2.73419L6.06541 2.73591L5.81047 2.65868C5.81047 2.65761 5.81046 2.65674 5.81197 2.65588L4.45029 2.24391L4.44382 2.2506L2.62768 1.70511C2.58566 1.6927 2.54208 1.68645 2.49827 1.68656C2.37278 1.68686 2.25227 1.7357 2.162 1.82287L1.5216 2.46197C1.45202 2.53217 1.41222 2.62652 1.41052 2.72534C1.40927 2.79256 1.42678 2.85879 1.46107 2.91662C1.49536 2.97446 1.54507 3.0216 1.60465 3.05276L5.42459 5.18814C5.45784 5.20934 5.48935 5.23313 5.51884 5.25931L6.60744 6.34834C5.59002 7.42249 4.68109 8.46215 3.97599 9.36634C3.90912 9.45067 3.84656 9.53156 3.78315 9.61244L0.828141 9.34456C0.81105 9.34229 0.79384 9.34111 0.7766 9.34109C0.639912 9.34436 0.509278 9.39816 0.409918 9.49209L0.11139 9.78996C0.0679959 9.83112 0.0354111 9.88232 0.0164975 9.93906C-0.00241598 9.99581 -0.00706854 10.0564 0.00295085 10.1153C0.0129702 10.1743 0.0373554 10.2299 0.0739492 10.2772C0.110543 10.3245 0.158219 10.362 0.212773 10.3866L2.29228 11.3753C2.32065 11.391 2.34714 11.4099 2.37123 11.4316L2.54378 11.6031C2.49416 11.7314 2.46639 11.8672 2.4616 12.0047C2.45863 12.0746 2.4699 12.1445 2.49474 12.2099C2.51958 12.2754 2.55748 12.335 2.60611 12.3854L2.61388 12.3925L2.61496 12.3942C2.66598 12.4424 2.72611 12.4798 2.79183 12.5044C2.85755 12.5289 2.92752 12.54 2.9976 12.537C3.13344 12.5309 3.26742 12.5031 3.39447 12.4546L3.56876 12.6289C3.58935 12.6533 3.60768 12.6795 3.62354 12.7072L4.60947 14.7822C4.6377 14.8467 4.68403 14.9016 4.74283 14.9403C4.80163 14.979 4.87039 14.9998 4.94078 15.0003H4.94186C5.0409 14.9995 5.13568 14.9599 5.20587 14.89L5.51065 14.5833C5.60303 14.4841 5.65483 14.3539 5.65581 14.2184C5.65619 14.206 5.65582 14.1936 5.65473 14.1813L5.38533 11.2155C5.46837 11.1549 5.54947 11.0908 5.63381 11.0259C6.53972 10.3173 7.57915 9.40818 8.65007 8.39227L9.74019 9.48324C9.76728 9.51159 9.79114 9.54284 9.81136 9.57642L11.9422 13.3897C11.9691 13.4417 12.0079 13.4866 12.0556 13.5206C12.1032 13.5546 12.1583 13.5769 12.2162 13.5855C12.2741 13.594 12.3332 13.5887 12.3887 13.5699C12.4442 13.5512 12.4943 13.5194 12.5351 13.4774L13.1796 12.8349C13.2366 12.7744 13.2769 12.7002 13.2969 12.6196C13.3168 12.5389 13.3157 12.4545 13.2935 12.3744L12.7843 10.6752L12.7713 10.6629L11.8536 7.56485L11.8525 7.56638L11.3208 5.77956Z" fill="#C2C9D4"/>
<path d="M12.866 8.16906C12.8663 8.06305 12.8245 7.96127 12.7498 7.88606L12.4262 7.56252C12.3889 7.52499 12.3446 7.4952 12.2957 7.47487C12.2468 7.45454 12.1944 7.44409 12.1415 7.44409C12.0886 7.44409 12.0362 7.45454 11.9873 7.47487C11.9385 7.4952 11.8941 7.52499 11.8568 7.56252L11.8557 7.56381L12.2621 8.93499L12.7491 8.45055C12.8235 8.3757 12.8655 8.27459 12.866 8.16906Z" fill="#27B7FF"/>
<path d="M13.3117 9.82848C13.3117 9.77641 13.3015 9.72485 13.2815 9.67674C13.2616 9.62863 13.2324 9.58492 13.1956 9.54809L12.8697 9.22455C12.8333 9.18718 12.7896 9.15752 12.7415 9.1374C12.6933 9.11727 12.6415 9.1071 12.5893 9.10744C12.5003 9.1067 12.4137 9.13611 12.3436 9.1909L12.3354 9.18119L12.5839 9.98833L12.7519 10.5584L13.1954 10.1143C13.2705 10.0382 13.3123 9.93538 13.3117 9.82848Z" fill="#27B7FF"/>
</g>
<defs>
<clipPath id="clip0_222_2720">
<rect width="15" height="15" fill="white"/>
</clipPath>
</defs>
</svg>
