<svg width="16" height="16" viewBox="0 0 16 16" fill="none" xmlns="http://www.w3.org/2000/svg">
<g clip-path="url(#clip0_222_2737)">
<path d="M9.22211 4.44447C10.204 4.44447 10.9999 3.64853 10.9999 2.66669C10.9999 1.68485 10.204 0.888916 9.22211 0.888916C8.24027 0.888916 7.44434 1.68485 7.44434 2.66669C7.44434 3.64853 8.24027 4.44447 9.22211 4.44447Z" fill="#C2C9D4" fill-opacity="0.82"/>
<path d="M11.0401 11.6579C10.991 11.6248 10.9358 11.6019 10.8777 11.5905C10.8196 11.5791 10.7598 11.5794 10.7019 11.5914C10.6439 11.6034 10.5889 11.6269 10.5402 11.6604C10.4914 11.694 10.4498 11.7369 10.4179 11.7868C9.98823 12.423 9.46189 12.9884 8.85788 13.4623C8.71121 13.5734 8.16455 13.9956 7.93343 13.9068C7.77343 13.8579 7.86677 13.5423 7.89788 13.409L8.13343 12.7112C8.23121 12.4268 9.93343 7.37786 10.1201 6.80009C10.3957 5.95564 10.2757 5.12453 9.01788 5.32453C8.67566 5.36009 5.20455 5.80898 5.14232 5.81342C5.08396 5.81721 5.02691 5.83247 4.97444 5.85831C4.92197 5.88415 4.8751 5.92007 4.83652 5.96402C4.79793 6.00797 4.76837 6.0591 4.74954 6.11447C4.73071 6.16985 4.72297 6.22839 4.72677 6.28675C4.73056 6.34512 4.74581 6.40216 4.77165 6.45464C4.7975 6.50711 4.83342 6.55397 4.87737 6.59256C4.92132 6.63115 4.97245 6.6607 5.02782 6.67953C5.08319 6.69836 5.14174 6.7061 5.2001 6.70231C5.2001 6.70231 6.53343 6.52898 6.6801 6.51564C6.75523 6.50831 6.83087 6.52287 6.8979 6.55757C6.96493 6.59227 7.0205 6.64562 7.05788 6.7112C7.13841 6.96014 7.12738 7.22967 7.02677 7.4712C6.91121 7.91564 5.08455 13.0623 5.02677 13.3601C4.9648 13.6093 4.982 13.8716 5.07599 14.1105C5.16998 14.3495 5.33609 14.5532 5.55121 14.6934C5.95499 14.9625 6.43577 15.0921 6.9201 15.0623C7.39102 15.0566 7.85675 14.9631 8.29343 14.7868C9.4001 14.3423 10.5557 13.1601 11.1645 12.2312C11.217 12.1368 11.2333 12.0266 11.2104 11.9211C11.1875 11.8156 11.1269 11.722 11.0401 11.6579Z" fill="#C2C9D4" fill-opacity="0.82"/>
</g>
<defs>
<clipPath id="clip0_222_2737">
<rect width="16" height="16" fill="white"/>
</clipPath>
</defs>
</svg>
