<svg width="16" height="16" viewBox="0 0 16 16" fill="none" xmlns="http://www.w3.org/2000/svg">
<path d="M15.0593 7.49989L15.4475 6.72352C15.5153 6.58778 15.5178 6.42885 15.4545 6.29091C15.3911 6.15321 15.2685 6.05165 15.1215 6.01478L13.5002 5.60951V5.49989C13.5002 5.22377 13.2763 4.99989 13.0002 4.99989H11.7072L11.0002 4.29286V3.49989C11.0002 3.34584 10.9291 3.20057 10.8078 3.10585C10.6862 3.01088 10.5275 2.9767 10.3789 3.01478L8.37885 3.51478C8.25825 3.54506 8.15326 3.61903 8.08417 3.72255L7.5622 4.50575L7.44745 4.27626C7.37543 4.13246 7.23896 4.03212 7.08027 4.00624C6.92304 3.98182 6.7602 4.03309 6.64667 4.14637L6.37983 4.41322L4.18598 3.53553C4.0766 3.49183 3.95502 3.48842 3.84199 3.52552L2.34199 4.02552C2.08002 4.11293 1.93842 4.39613 2.02582 4.65809L2.38862 5.74672L1.77656 6.05262C1.60712 6.13734 1.50019 6.31044 1.50019 6.49989V7.19081L0.776556 7.55262C0.529485 7.67616 0.429388 7.97645 0.552923 8.22352L1.05292 9.22352C1.13764 9.39296 1.31074 9.49989 1.50019 9.49989H3.50019C3.63276 9.49989 3.75995 9.44716 3.8537 9.35341L4.27021 8.9369L5.36518 8.57191L6.79316 9.99989L6.14667 10.6464C6.10859 10.6842 6.07709 10.7282 6.05292 10.7763L5.55292 11.7763C5.45673 11.9689 5.49457 12.2013 5.64667 12.3534L6.14667 12.8534C6.24042 12.9472 6.36762 12.9999 6.50019 12.9999H7.00019C7.13276 12.9999 7.25995 12.9472 7.3537 12.8534L8.00019 12.2069L8.14667 12.3534C8.2602 12.4667 8.42084 12.5177 8.58027 12.4935C8.73896 12.4677 8.87543 12.3673 8.94745 12.2235L9.00019 12.1178V12.4999C9.00019 12.6893 9.10712 12.8624 9.27656 12.9472L10.0002 13.309V13.4999C10.0002 13.6732 10.09 13.8341 10.2372 13.9252C10.3176 13.9747 10.4089 13.9999 10.5002 13.9999C10.5766 13.9999 10.6533 13.9823 10.7238 13.9472L12.7238 12.9472C12.8205 12.8988 12.8991 12.8202 12.9475 12.7235L13.4475 11.7235C13.5436 11.5309 13.5058 11.2985 13.3537 11.1464C13.2021 10.9945 12.9694 10.9567 12.7766 11.0526L12.2238 11.329L12.1545 11.1903L14.2575 9.9286C14.3391 9.87977 14.405 9.80848 14.4475 9.72352L14.8093 8.99989H15.0002C15.1735 8.99989 15.3344 8.91005 15.4255 8.76283C15.5165 8.61537 15.5248 8.43129 15.4475 8.27626L15.0593 7.49989ZM14.0529 7.27626C13.9826 7.41713 13.9826 7.58265 14.0529 7.72352L14.2307 8.07875C14.156 8.1266 14.0942 8.19398 14.0529 8.27626L13.6181 9.14613L11.2429 10.5712C11.019 10.7055 10.9362 10.9899 11.0529 11.2235L11.5529 12.2235C11.5798 12.2772 11.6149 12.3239 11.6562 12.3629L10.9213 12.7304C10.8735 12.6557 10.8061 12.5939 10.7238 12.5526L10.0002 12.1908V12.1178L10.4475 11.2235C10.5248 11.0685 10.5165 10.8844 10.4255 10.737C10.3344 10.5897 10.1735 10.4999 10.0002 10.4999H9.00019C8.81074 10.4999 8.63764 10.6068 8.55292 10.7763L8.36323 11.1559L8.3537 11.1464C8.15839 10.9511 7.84199 10.9511 7.64667 11.1464L6.79316 11.9999H6.70722L6.60859 11.9013L6.91108 11.296L7.8537 10.3534C8.04902 10.1581 8.04902 9.84169 7.8537 9.64637L5.8537 7.64637C5.71967 7.51185 5.52167 7.46522 5.34199 7.52553L3.84199 8.02553C3.7685 8.05018 3.7016 8.09144 3.64667 8.14637L3.29316 8.49989H1.80927L1.67109 8.22352L2.22382 7.94716C2.39325 7.86244 2.50019 7.68934 2.50019 7.49989V6.80897L3.22382 6.44716C3.44623 6.33583 3.55317 6.07777 3.47455 5.84169L3.13276 4.81605L3.98456 4.53212L6.3144 5.46425C6.50043 5.53822 6.71259 5.49525 6.8537 5.35341L6.86323 5.34388L7.05292 5.72352C7.13276 5.88295 7.2912 5.98793 7.46918 5.99891C7.64472 6.0121 7.81733 5.92543 7.9162 5.77723L8.80903 4.43812L10.0002 4.14027V4.49989C10.0002 4.63246 10.0529 4.75966 10.1467 4.85341L11.1467 5.85341C11.2404 5.94716 11.3676 5.99989 11.5002 5.99989H12.5002C12.5002 6.22938 12.6564 6.42933 12.8789 6.485L14.2741 6.83387L14.0529 7.27626Z" fill="#C2C9D4"/>
</svg>
