<svg width="40" height="40" viewBox="0 0 40 40" fill="none" xmlns="http://www.w3.org/2000/svg">
<rect width="40" height="40" rx="8" fill="white"/>
<g filter="url(#filter0_i_117_400)">
<rect x="3" y="3" width="34" height="34" rx="17" fill="#4D9FFF"/>
</g>
<path d="M15.4413 11.8356C15.3652 11.8319 15.2889 11.8345 15.2131 11.8441C15.1153 11.8566 15.019 11.8815 14.9278 11.9193C14.8609 11.947 14.7965 11.982 14.7367 12.0229C14.2857 12.3313 14.1301 12.929 14.1709 13.4483C14.2135 13.9897 14.4838 14.4698 14.7329 14.9402C14.7091 14.9744 14.8607 15.1205 15.0705 15.2664C15.2803 15.4123 15.4698 15.5031 15.4936 15.4689C15.2974 15.0985 15.0814 14.7226 14.9916 14.3089C14.9718 14.2178 14.958 14.1259 14.9507 14.0331C14.9101 13.5171 15.0698 12.9153 15.5288 12.621C15.5881 12.583 15.6513 12.5519 15.7171 12.5269C15.8161 12.4892 15.9205 12.4669 16.0261 12.4594C16.168 12.4493 16.3113 12.4649 16.4493 12.4983C16.6011 12.5351 16.7473 12.5941 16.8886 12.66C17.0925 12.755 17.288 12.8716 17.462 13.0147C17.6106 13.1368 17.7445 13.2757 17.8747 13.4169C18.0012 13.5541 18.124 13.6939 18.2436 13.8372C18.9412 14.673 19.5296 15.5959 20.0608 16.5444C20.7701 17.811 21.3757 19.1319 21.9883 20.4469C22.1794 20.8573 22.3712 21.2672 22.5607 21.6783C22.8248 22.2511 23.0958 22.8236 23.4365 23.3557C23.6999 23.7671 24.0066 24.1501 24.3607 24.4872C24.6727 24.7843 25.0211 25.0498 25.3963 25.2622C25.49 25.3153 25.5854 25.365 25.6834 25.4096C25.7689 25.4484 25.8552 25.4835 25.944 25.5142C26.3706 25.6616 26.8941 25.7234 27.2885 25.4562C27.3461 25.4172 27.3995 25.3716 27.4474 25.3212C27.5158 25.2491 27.5725 25.1667 27.6185 25.0787C27.6859 24.9497 27.7298 24.8095 27.7573 24.6669C27.8055 24.4181 27.8087 24.1584 27.7878 23.9062C27.774 23.7405 27.7475 23.5752 27.7079 23.4137C27.5054 22.5872 26.9784 21.8973 26.4546 21.2466C26.4737 21.2156 26.3353 21.0963 26.1456 20.9794C25.9558 20.8624 25.7862 20.7925 25.7671 20.8234C26.0785 21.2104 26.3873 21.6042 26.621 22.0444C26.7766 22.3376 26.8955 22.6503 26.9605 22.9762C27.0024 23.1864 27.0221 23.401 27.0204 23.6152C27.0177 23.9666 26.9637 24.3429 26.7446 24.6299C26.6958 24.6938 26.6395 24.7522 26.5763 24.802C26.1931 25.1041 25.649 25.0488 25.2203 24.8847C25.0925 24.8358 24.9632 24.777 24.8504 24.6983C24.851 24.6988 24.8479 24.697 24.8486 24.6974C24.7519 24.6109 24.6653 24.5105 24.5823 24.4112C24.3942 24.1863 24.2277 23.9429 24.0774 23.6913C23.7674 23.1727 23.5136 22.6251 23.2615 22.0767C23.1137 21.7551 22.9623 21.4352 22.8127 21.1144C22.1768 19.7507 21.5515 18.3793 20.8158 17.0655C20.2289 16.0174 19.5719 15.0033 18.7875 14.0911C18.6076 13.8819 18.4229 13.6763 18.2275 13.4816C17.8157 13.0713 17.3577 12.7004 16.8648 12.3918C16.6565 12.2614 16.4406 12.1435 16.2154 12.0447C16.0393 11.9676 15.8578 11.8999 15.6686 11.8631C15.5938 11.8486 15.5175 11.8392 15.4413 11.8356Z" fill="white"/>
<path d="M23.0219 11.7691C22.5289 11.8004 21.9827 12.0079 21.7695 12.4889C21.7338 12.5696 21.7104 12.6541 21.6954 12.7409C21.6685 12.7759 21.8216 12.9375 22.0367 13.1022C22.2519 13.2669 22.4473 13.3721 22.4741 13.3371C22.4887 13.2529 22.5117 13.171 22.5464 13.0927C22.7692 12.5902 23.3624 12.3933 23.8739 12.3871C23.9648 12.386 24.0564 12.391 24.1468 12.4014C24.2992 12.4189 24.4506 12.4518 24.5947 12.5051C24.6053 12.509 24.6154 12.5142 24.626 12.5184C24.6393 12.5409 24.6538 12.5632 24.665 12.5868C24.7188 12.6997 24.7491 12.8228 24.7582 12.9472C24.7855 13.3203 24.6336 13.6857 24.4444 13.9989C24.2309 14.3524 23.9564 14.6687 23.6694 14.9641C23.2405 15.4056 22.7736 15.8079 22.3429 16.2478C21.6651 16.9401 21.004 17.6484 20.3441 18.3578C19.7183 19.0307 19.093 19.7054 18.4756 20.3861C17.9749 20.9382 17.4747 21.4913 16.9837 22.0521C16.9132 22.1326 16.8459 22.2165 16.7716 22.2936C16.7215 22.3455 16.6628 22.3905 16.6081 22.4372C16.5745 22.4658 16.5396 22.4943 16.5101 22.5275C16.4998 22.5392 16.4866 22.5539 16.4844 22.5703C16.4833 22.579 16.484 22.5904 16.4883 22.5979C16.502 22.6222 16.5134 22.6492 16.5339 22.6682C16.6767 22.8012 16.8214 22.9324 16.9761 23.0514C17.0443 23.1039 17.1246 23.1391 17.2005 23.1798C17.2337 23.1976 17.2801 23.2002 17.3136 23.1827C17.3624 23.1571 17.4042 23.1164 17.4439 23.079C17.4971 23.029 17.5476 22.976 17.598 22.923C17.7495 22.7638 17.8911 22.5943 18.0458 22.4381C18.0886 22.3949 18.1362 22.3564 18.1828 22.3173C18.2596 22.2529 18.3379 22.1906 18.4186 22.131C18.8408 21.8192 19.343 21.5666 19.8801 21.5766C19.9644 21.5782 20.0474 21.5887 20.1302 21.6032C20.1413 21.6393 20.1556 21.6745 20.1625 21.7116C20.2196 22.0175 20.1609 22.3391 20.0798 22.6349C19.992 22.9555 19.866 23.2652 19.7251 23.5659C19.6191 23.7921 19.5027 24.0135 19.379 24.2305C19.2419 24.471 19.0977 24.7072 18.9435 24.9371C18.8535 25.0712 18.7611 25.2047 18.6611 25.3317C18.5597 25.4603 18.449 25.5824 18.3368 25.7016C17.9912 26.0686 17.6059 26.3992 17.1824 26.6734C16.9075 26.8514 16.6173 27.0052 16.3152 27.1317C15.4162 27.5082 14.4369 27.6288 13.4682 27.611C13.052 27.6033 12.637 27.5695 12.2235 27.5235C12.1956 27.556 12.3341 27.7209 12.5335 27.8924C12.7329 28.064 12.9173 28.1769 12.9452 28.1444C13.3628 28.1909 13.782 28.2261 14.2023 28.2338C15.2032 28.2522 16.2152 28.1228 17.1396 27.7222C17.4206 27.6004 17.6917 27.4551 17.9489 27.2886C18.3742 27.0132 18.7609 26.6807 19.108 26.3121C19.2207 26.1923 19.3314 26.0695 19.4332 25.9403C19.544 25.7996 19.6461 25.6519 19.7451 25.5028C19.8893 25.2856 20.0249 25.0636 20.154 24.8372C20.3489 24.4954 20.5261 24.1415 20.6722 23.776C20.7831 23.4984 20.8783 23.2116 20.9289 22.9164C20.9867 22.5794 20.9873 22.2099 20.793 21.9142C20.7224 21.8067 20.6341 21.7122 20.541 21.6241C20.4689 21.5559 20.3931 21.4921 20.3156 21.4302C20.1236 21.2766 19.9124 21.132 19.6795 21.0479C19.5756 21.0104 19.4673 20.9862 19.3581 20.9709C19.3307 20.967 19.3035 20.9677 19.2763 20.9652C19.2766 20.9648 19.2769 20.9645 19.2772 20.9642C19.6152 20.5932 19.9555 20.2246 20.2956 19.8555C20.9523 19.1429 21.6114 18.4315 22.2792 17.7293C22.4933 17.5042 22.708 17.2794 22.9239 17.056C23.042 16.9339 23.1598 16.8114 23.2805 16.6918C23.4071 16.5665 23.5368 16.444 23.6666 16.3219C24.1436 15.8733 24.6327 15.4289 25.0225 14.8994C25.2488 14.5921 25.4499 14.2462 25.518 13.8658C25.5747 13.5486 25.5215 13.2395 25.3402 12.9681C25.2021 12.7616 25.0149 12.589 24.8238 12.4328C24.6117 12.2594 24.3842 12.1012 24.1363 11.983C23.7911 11.8185 23.4034 11.7448 23.0219 11.7691Z" fill="white"/>
<defs>
<filter id="filter0_i_117_400" x="3" y="3" width="34" height="36" filterUnits="userSpaceOnUse" color-interpolation-filters="sRGB">
<feFlood flood-opacity="0" result="BackgroundImageFix"/>
<feBlend mode="normal" in="SourceGraphic" in2="BackgroundImageFix" result="shape"/>
<feColorMatrix in="SourceAlpha" type="matrix" values="0 0 0 0 0 0 0 0 0 0 0 0 0 0 0 0 0 0 127 0" result="hardAlpha"/>
<feOffset dy="2"/>
<feGaussianBlur stdDeviation="1"/>
<feComposite in2="hardAlpha" operator="arithmetic" k2="-1" k3="1"/>
<feColorMatrix type="matrix" values="0 0 0 0 0 0 0 0 0 0 0 0 0 0 0 0 0 0 0.32 0"/>
<feBlend mode="normal" in2="shape" result="effect1_innerShadow_117_400"/>
</filter>
</defs>
</svg>
