<?xml version="1.0" encoding="UTF-8" standalone="no"?>
<!DOCTYPE svg PUBLIC "-//W3C//DTD SVG 1.1//EN" "http://www.w3.org/Graphics/SVG/1.1/DTD/svg11.dtd">
<!-- Created with Vectornator (http://vectornator.io/) -->
<svg height="100%" stroke-miterlimit="10" style="fill-rule:nonzero;clip-rule:evenodd;stroke-linecap:round;stroke-linejoin:round;" version="1.1" viewBox="0 0 1024 1024" width="100%" xml:space="preserve" xmlns="http://www.w3.org/2000/svg" xmlns:vectornator="http://vectornator.io" xmlns:xlink="http://www.w3.org/1999/xlink">
<defs/>
<g id="Layer-1" vectornator:layerName="Layer 1">
<g opacity="1" vectornator:layerName="Group 1">
<g opacity="1" vectornator:layerName="Group 1">
<g opacity="1" vectornator:layerName="Curve 1">
<path d="M362.281 243.688C359.778 243.568 357.271 243.651 354.781 243.969C351.565 244.379 348.402 245.197 345.406 246.438C343.206 247.349 341.091 248.499 339.125 249.844C324.304 259.98 319.189 279.623 320.531 296.688C321.93 314.479 330.813 330.259 339 345.719C338.218 346.843 343.198 351.642 350.094 356.438C356.99 361.233 363.218 364.218 364 363.094C357.552 350.919 350.454 338.565 347.5 324.969C346.85 321.977 346.396 318.958 346.156 315.906C344.822 298.948 350.071 279.171 365.156 269.5C367.104 268.251 369.181 267.229 371.344 266.406C374.598 265.169 378.03 264.434 381.5 264.188C386.162 263.857 390.872 264.37 395.406 265.469C400.396 266.678 405.199 268.616 409.844 270.781C416.546 273.905 422.968 277.735 428.688 282.438C433.57 286.452 437.971 291.015 442.25 295.656C446.408 300.166 450.445 304.759 454.375 309.469C477.299 336.936 496.638 367.266 514.094 398.438C537.403 440.062 557.306 483.473 577.438 526.688C583.72 540.174 590.021 553.645 596.25 567.156C604.929 585.98 613.835 604.794 625.031 622.281C633.688 635.802 643.768 648.39 655.406 659.469C665.66 669.23 677.109 677.957 689.438 684.938C692.517 686.681 695.653 688.316 698.875 689.781C701.684 691.058 704.521 692.211 707.438 693.219C721.457 698.064 738.662 700.095 751.625 691.312C753.516 690.031 755.271 688.532 756.844 686.875C759.093 684.505 760.958 681.8 762.469 678.906C764.682 674.667 766.125 670.06 767.031 665.375C768.613 657.197 768.719 648.661 768.031 640.375C767.579 634.928 766.707 629.497 765.406 624.188C758.751 597.026 741.431 574.354 724.219 552.969C724.845 551.952 720.299 548.031 714.062 544.188C707.826 540.344 702.251 538.046 701.625 539.062C711.86 551.779 722.008 564.721 729.688 579.188C734.802 588.823 738.709 599.099 740.844 609.812C742.22 616.719 742.867 623.772 742.812 630.812C742.723 642.358 740.95 654.727 733.75 664.156C732.146 666.257 730.295 668.176 728.219 669.812C715.626 679.741 697.742 677.925 683.656 672.531C679.455 670.923 675.205 668.992 671.5 666.406C671.518 666.423 671.417 666.361 671.438 666.375C668.261 663.534 665.417 660.233 662.688 656.969C656.507 649.578 651.033 641.579 646.094 633.312C635.908 616.267 627.565 598.272 619.281 580.25C614.424 569.681 609.447 559.167 604.531 548.625C583.634 503.808 563.084 458.74 538.906 415.562C519.619 381.118 498.028 347.791 472.25 317.812C466.338 310.938 460.268 304.182 453.844 297.781C440.312 284.298 425.26 272.109 409.062 261.969C402.215 257.682 395.12 253.807 387.719 250.562C381.932 248.026 375.968 245.801 369.75 244.594C367.291 244.117 364.785 243.807 362.281 243.688Z" fill="#ffffff" stroke="none"/>
</g>
<g opacity="1" vectornator:layerName="Curve 2">
<path d="M611.406 241.5C595.206 242.531 577.256 249.349 570.25 265.156C569.074 267.809 568.305 270.586 567.812 273.438C566.931 274.59 571.962 279.901 579.031 285.312C586.101 290.724 592.524 294.183 593.406 293.031C593.883 290.266 594.641 287.572 595.781 285C603.101 268.487 622.596 262.016 639.406 261.812C642.394 261.776 645.406 261.941 648.375 262.281C653.383 262.856 658.361 263.939 663.094 265.688C663.444 265.817 663.777 265.988 664.125 266.125C664.562 266.866 665.037 267.599 665.406 268.375C667.173 272.083 668.17 276.129 668.469 280.219C669.365 292.48 664.375 304.487 658.156 314.781C651.138 326.399 642.117 336.793 632.688 346.5C618.592 361.011 603.247 374.233 589.094 388.688C566.817 411.439 545.091 434.718 523.406 458.031C502.838 480.144 482.288 502.317 462 524.688C445.545 542.833 429.107 561.009 412.969 579.438C410.651 582.084 408.442 584.843 406 587.375C404.354 589.082 402.425 590.561 400.625 592.094C399.52 593.034 398.373 593.973 397.406 595.062C397.066 595.446 396.634 595.931 396.562 596.469C396.525 596.754 396.549 597.129 396.688 597.375C397.138 598.175 397.515 599.062 398.188 599.688C402.881 604.058 407.636 608.371 412.719 612.281C414.961 614.006 417.601 615.164 420.094 616.5C421.184 617.084 422.71 617.172 423.812 616.594C425.416 615.754 426.788 614.415 428.094 613.188C429.843 611.543 431.502 609.801 433.156 608.062C438.136 602.828 442.791 597.257 447.875 592.125C449.282 590.705 450.846 589.439 452.375 588.156C454.901 586.037 457.473 583.99 460.125 582.031C474 571.785 490.506 563.484 508.156 563.812C510.926 563.864 513.655 564.21 516.375 564.688C516.739 565.875 517.21 567.029 517.438 568.25C519.314 578.304 517.383 588.87 514.719 598.594C511.832 609.13 507.693 619.308 503.062 629.188C499.578 636.622 495.754 643.899 491.688 651.031C487.182 658.933 482.444 666.696 477.375 674.25C474.417 678.659 471.381 683.047 468.094 687.219C464.764 691.445 461.124 695.459 457.438 699.375C446.081 711.437 433.418 722.302 419.5 731.312C410.465 737.162 400.928 742.217 391 746.375C361.457 758.748 329.273 762.711 297.438 762.125C283.76 761.873 270.121 760.762 256.531 759.25C255.613 760.318 260.165 765.738 266.719 771.375C273.273 777.012 279.331 780.724 280.25 779.656C293.974 781.183 307.75 782.34 321.562 782.594C354.456 783.199 387.715 778.945 418.094 765.781C427.329 761.779 436.238 757.001 444.688 751.531C458.668 742.481 471.374 731.554 482.781 719.438C486.485 715.503 490.123 711.465 493.469 707.219C497.11 702.597 500.466 697.744 503.719 692.844C508.457 685.706 512.913 678.41 517.156 670.969C523.561 659.737 529.387 648.106 534.188 636.094C537.833 626.972 540.961 617.545 542.625 607.844C544.524 596.77 544.542 584.627 538.156 574.906C535.836 571.374 532.936 568.27 529.875 565.375C527.505 563.133 525.015 561.037 522.469 559C516.159 553.953 509.217 549.201 501.562 546.438C498.15 545.205 494.59 544.411 491 543.906C490.099 543.78 489.208 543.801 488.312 543.719C488.322 543.708 488.334 543.698 488.344 543.688C499.451 531.493 510.635 519.38 521.812 507.25C543.393 483.831 565.053 460.452 587 437.375C594.036 429.977 601.092 422.592 608.188 415.25C612.068 411.235 615.938 407.21 619.906 403.281C624.068 399.161 628.328 395.137 632.594 391.125C648.27 376.382 664.344 361.777 677.156 344.375C684.591 334.277 691.202 322.907 693.438 310.406C695.302 299.982 693.553 289.825 687.594 280.906C683.058 274.118 676.906 268.447 670.625 263.312C663.655 257.615 656.177 252.414 648.031 248.531C636.687 243.124 623.946 240.702 611.406 241.5Z" fill="#ffffff" stroke="none"/>
</g>
</g>
</g>
</g>
</svg>
