<svg width="16" height="16" viewBox="0 0 16 16" fill="none" xmlns="http://www.w3.org/2000/svg">
<g clip-path="url(#clip0_222_2735)">
<path fill-rule="evenodd" clip-rule="evenodd" d="M7.96165 0.833252H8.03818C9.57712 0.833245 10.7831 0.833239 11.7241 0.959752C12.6873 1.08925 13.4473 1.35947 14.0439 1.95601C14.6404 2.55255 14.9106 3.31257 15.0401 4.27573C15.1666 5.21671 15.1666 6.42274 15.1666 7.96165V8.03818C15.1666 9.57712 15.1666 10.7831 15.0401 11.7241C14.9106 12.6873 14.6404 13.4473 14.0439 14.0439C13.4473 14.6404 12.6873 14.9106 11.7241 15.0401C10.7831 15.1666 9.57712 15.1666 8.03818 15.1666H7.96165C6.42274 15.1666 5.21671 15.1666 4.27573 15.0401C3.31257 14.9106 2.55255 14.6404 1.95601 14.0439C1.35947 13.4473 1.08925 12.6873 0.959752 11.7241C0.833239 10.7831 0.833245 9.57712 0.833252 8.03818V7.96165C0.833245 6.42274 0.833239 5.21671 0.959752 4.27573C1.08925 3.31257 1.35947 2.55255 1.95601 1.95601C2.55255 1.35947 3.31257 1.08925 4.27573 0.959752C5.21671 0.833239 6.42274 0.833245 7.96165 0.833252ZM4.40897 1.95083C3.5567 2.06542 3.04289 2.28335 2.66312 2.66312C2.28335 3.04289 2.06542 3.5567 1.95083 4.40897C1.83431 5.27563 1.83325 6.41443 1.83325 7.99992C1.83325 9.58538 1.83431 10.7242 1.95083 11.5909C2.06542 12.4431 2.28335 12.9569 2.66312 13.3367C3.04289 13.7165 3.5567 13.9345 4.40897 14.049C5.27563 14.1655 6.41443 14.1666 7.99992 14.1666C9.58538 14.1666 10.7242 14.1655 11.5909 14.049C12.4431 13.9345 12.9569 13.7165 13.3367 13.3367C13.7165 12.9569 13.9345 12.4431 14.049 11.5909C14.1655 10.7242 14.1666 9.58538 14.1666 7.99992C14.1666 6.41443 14.1655 5.27563 14.049 4.40897C13.9345 3.5567 13.7165 3.04289 13.3367 2.66312C12.9569 2.28335 12.4431 2.06542 11.5909 1.95083C10.7242 1.83431 9.58538 1.83325 7.99992 1.83325C6.41443 1.83325 5.27563 1.83431 4.40897 1.95083ZM8.32405 4.19795C8.71525 3.96749 9.22232 3.96864 9.64012 4.29252C10.6791 5.09797 11.8333 6.49048 11.8333 8.44439C11.8333 10.0295 11.1616 11.0685 10.2921 11.6946C9.44805 12.3023 8.45032 12.4999 7.77772 12.4999C7.16439 12.4999 6.26824 12.2943 5.51555 11.6749C4.7424 11.0387 4.16658 10.0032 4.16658 8.44439C4.16658 6.99112 5.00506 6.06734 5.69395 5.60989C5.9484 5.44092 6.27088 5.38766 6.56163 5.5009C6.87032 5.62113 7.07905 5.9067 7.09812 6.26052C7.10458 6.38022 7.13258 6.49091 7.17165 6.58C7.19032 6.62263 7.20972 6.65619 7.22732 6.68179C7.54118 6.24683 7.69598 5.65252 7.69598 5.33325C7.69598 4.8458 7.94492 4.42127 8.32405 4.19795ZM8.83158 5.05956C8.76652 5.09791 8.69598 5.18952 8.69598 5.33325C8.69598 5.8658 8.47092 6.68445 8.01512 7.29865C7.85612 7.51285 7.63445 7.68685 7.35058 7.72685C7.06498 7.76718 6.81879 7.65752 6.64335 7.51325C6.36317 7.28292 6.18679 6.91292 6.12334 6.53064C5.6549 6.88405 5.16658 7.50639 5.16658 8.44439C5.16658 9.72999 5.6278 10.4723 6.15095 10.9027C6.69458 11.3501 7.35399 11.4999 7.77772 11.4999C8.29025 11.4999 9.07025 11.3421 9.70778 10.8831C10.3198 10.4424 10.8333 9.70365 10.8333 8.44439C10.8333 6.91712 9.93312 5.78492 9.02745 5.08285C8.97919 5.04542 8.94238 5.03719 8.91898 5.03594C8.89352 5.03459 8.86372 5.04066 8.83158 5.05956Z" fill="#C2C9D4" fill-opacity="0.82"/>
</g>
<defs>
<clipPath id="clip0_222_2735">
<rect width="16" height="16" fill="white"/>
</clipPath>
</defs>
</svg>
